HIERARCHY
ROOT Hips
{
	OFFSET 54.202000 -7.350934 84.304001
	CHANNELS 6 Xposition Yposition Zposition Xrotation Yrotation Zrotation
	JOINT spine
	{
		OFFSET 0.000000 -0.342408 5.954376
		CHANNELS 3 Xrotation Yrotation Zrotation
		JOINT spine1
		{
			OFFSET 0.000000 -0.000001 8.856018
			CHANNELS 3 Xrotation Yrotation Zrotation
			JOINT spine2
			{
				OFFSET 0.000000 -0.000001 8.485672
				CHANNELS 3 Xrotation Yrotation Zrotation
				JOINT Neck
				{
					OFFSET 0.000000 -1.038703 21.786301
					CHANNELS 3 Xrotation Yrotation Zrotation
					JOINT Head
					{
						OFFSET 0.000000 -0.000001 6.582199
						CHANNELS 3 Xrotation Yrotation Zrotation
						End Site
						{
							OFFSET 0.000000 5.254357 15.932602
						}
					}
				}
				JOINT RightShoulder
				{
					OFFSET -3.573071 0.497524 9.163864
					CHANNELS 3 Xrotation Yrotation Zrotation
					JOINT RightArm
					{
						OFFSET 0.000000 -0.000002 12.019196
						CHANNELS 3 Xrotation Yrotation Zrotation
						JOINT RightArmRoll
						{
							OFFSET 0.000000 -0.000001 6.067551
							CHANNELS 3 Xrotation Yrotation Zrotation
							JOINT RightForeArm
							{
								OFFSET 0.000000 -0.000003 17.672607
								CHANNELS 3 Xrotation Yrotation Zrotation
								JOINT RightForeArmRoll
								{
									OFFSET 0.000000 -0.000001 6.808731
									CHANNELS 3 Xrotation Yrotation Zrotation
									JOINT RightHand
									{
										OFFSET 0.000000 -0.000002 13.663605
										CHANNELS 3 Xrotation Yrotation Zrotation
										End Site
										{
											OFFSET 0.000000 0.000000 0.100006
										}
									}
								}
							}
						}
					}
				}
				JOINT LeftShoulder
				{
					OFFSET 3.573071 0.497524 9.163864
					CHANNELS 3 Xrotation Yrotation Zrotation
					JOINT LeftArm
					{
						OFFSET 0.000000 -0.000002 12.019196
						CHANNELS 3 Xrotation Yrotation Zrotation
						JOINT LeftArmRoll
						{
							OFFSET 0.000000 -0.000001 6.067551
							CHANNELS 3 Xrotation Yrotation Zrotation
							JOINT LeftForeArm
							{
								OFFSET 0.000000 -0.000003 17.672607
								CHANNELS 3 Xrotation Yrotation Zrotation
								JOINT LeftForeArmRoll
								{
									OFFSET 0.000000 -0.000001 6.808716
									CHANNELS 3 Xrotation Yrotation Zrotation
									JOINT LeftHand
									{
										OFFSET 0.000000 -0.000002 13.663605
										CHANNELS 3 Xrotation Yrotation Zrotation
										End Site
										{
											OFFSET 0.000000 0.000000 0.100006
										}
									}
								}
							}
						}
					}
				}
			}
		}
	}
	JOINT RightUpLeg
	{
		OFFSET -5.277740 0.811859 -0.967796
		CHANNELS 3 Xrotation Yrotation Zrotation
		JOINT RightUpLegRoll
		{
			OFFSET 0.000000 -0.000003 16.021400
			CHANNELS 3 Xrotation Yrotation Zrotation
			JOINT RightLeg
			{
				OFFSET 0.000000 0.000003 -19.840103
				CHANNELS 3 Xrotation Yrotation Zrotation
				JOINT RightLegRoll
				{
					OFFSET 0.000000 -0.000003 19.904999
					CHANNELS 3 Xrotation Yrotation Zrotation
					JOINT RightFoot
					{
						OFFSET 0.000000 -0.000003 16.567497
						CHANNELS 3 Xrotation Yrotation Zrotation
						JOINT RightToeBase
						{
							OFFSET 0.000000 -0.000002 13.849602
							CHANNELS 3 Xrotation Yrotation Zrotation
							End Site
							{
								OFFSET 0.005871 0.773116 6.707275
							}
						}
					}
				}
			}
		}
	}
	JOINT LeftUpLeg
	{
		OFFSET 5.277740 0.811859 -0.967796
		CHANNELS 3 Xrotation Yrotation Zrotation
		JOINT LeftUpLegRoll
		{
			OFFSET 0.000000 -0.000003 16.021500
			CHANNELS 3 Xrotation Yrotation Zrotation
			JOINT LeftLeg
			{
				OFFSET 0.000000 -0.000003 19.840004
				CHANNELS 3 Xrotation Yrotation Zrotation
				JOINT LeftLegRoll
				{
					OFFSET 0.000000 -0.000003 20.089005
					CHANNELS 3 Xrotation Yrotation Zrotation
					JOINT LeftFoot
					{
						OFFSET 0.000000 -0.000002 16.383499
						CHANNELS 3 Xrotation Yrotation Zrotation
						JOINT LeftToeBase
						{
							OFFSET 0.000000 -0.000002 13.849594
							CHANNELS 3 Xrotation Yrotation Zrotation
							End Site
							{
								OFFSET -0.026310 0.773116 6.707275
							}
						}
					}
				}
			}
		}
	}
}
MOTION
Frames: 6
Frame Time: 0.041667
52.604702 -3.325374 84.373604 -9.142477 -0.063447 -2.230981 -0.311718 -0.323391 0.061148 3.373516 -0.646122 0.139263 5.018618 -0.644373 0.146726 9.398232 6.393232 -0.224552 8.377349 -6.070901 -0.236955 -0.504201 -72.068543 -2.028476 -45.007426 -112.620619 -49.551947 -0.000004 0.000014 -0.000000 -0.019474 3.639491 -1.990703 0.000003 -0.000002 -3.011619 -5.000162 -7.999947 0.000006 -12.894248 72.588553 15.680479 -42.672631 116.529967 49.441018 0.000002 0.000003 -0.000000 -0.029854 -3.635730 1.990807 -0.000001 -0.000013 3.011611 -5.000155 7.999939 -0.000020 0.565678 -178.695070 3.925141 -179.999991 0.000005 -1.149995 168.006739 -3.043218 -0.710146 -0.000001 -0.000004 0.177859 70.298499 6.857900 2.135303 25.456959 -7.355615 0.000000 2.803590 179.569526 -0.113867 -0.000005 -0.000004 -1.153520 -10.388315 2.181836 0.483704 0.000004 0.000001 -0.179904 70.725414 -6.831918 -2.169444 25.456952 7.355613 -0.000000 
52.602005 -3.306756 84.375000 -9.130266 -0.064675 -2.225574 -0.313228 -0.323246 0.061147 3.370205 -0.645574 0.139261 5.015318 -0.643827 0.146724 9.388672 6.387357 -0.224894 8.388234 -6.069337 -0.236618 -0.518178 -72.066911 -2.043610 -45.004202 -112.610312 -49.541736 -0.000002 0.000014 -0.000000 -0.019476 3.639490 -1.990703 0.000002 -0.000002 -3.011620 -5.000161 -7.999947 0.000006 -12.863269 72.560146 15.645421 -42.632600 116.551045 49.423665 0.000002 0.000004 -0.000000 -0.029855 -3.635731 1.990806 -0.000001 -0.000013 3.011610 -5.000152 7.999939 -0.000020 0.552417 -178.692065 3.926129 -179.999991 0.000005 -1.149995 168.007709 -3.046170 -0.710718 -0.000001 -0.000005 0.177860 70.296061 6.857921 2.135157 25.456960 -7.355615 0.000001 2.819905 179.583500 -0.091189 -0.000005 -0.000004 -1.153520 -10.353552 2.162059 0.481607 0.000004 0.000001 -0.179904 70.723296 -6.831932 -2.169379 25.456955 7.355613 -0.000001 
52.592606 -3.309476 84.384201 -9.115783 -0.065855 -2.220066 -0.315162 -0.323141 0.061147 3.366023 -0.645089 0.139260 5.011137 -0.643344 0.146722 9.378449 6.381414 -0.225210 8.399806 -6.067792 -0.236235 -0.532569 -72.065073 -2.059176 -45.000998 -112.599999 -49.531600 -0.000005 0.000014 -0.000001 -0.019473 3.639490 -1.990703 0.000002 -0.000001 -3.011620 -5.000162 -7.999948 0.000007 -12.832750 72.530489 15.610828 -42.589573 116.573475 49.404199 0.000001 0.000004 0.000000 -0.029856 -3.635730 1.990805 -0.000001 -0.000013 3.011610 -5.000153 7.999939 -0.000019 0.536362 -178.689059 3.926750 -179.999991 0.000005 -1.149994 168.008570 -3.049120 -0.712306 -0.000001 -0.000005 0.177859 70.293308 6.857935 2.135130 25.456957 -7.355617 -0.000000 2.835428 179.597488 -0.067603 -0.000005 -0.000004 -1.153520 -10.316985 2.141658 0.479495 0.000005 0.000001 -0.179904 70.721158 -6.831917 -2.169206 25.456955 7.355613 -0.000001 
52.616100 -3.318677 84.379494 -9.099714 -0.066999 -2.214491 -0.317385 -0.323065 0.061146 3.361224 -0.644648 0.139256 5.006336 -0.642905 0.146720 9.367751 6.375422 -0.225506 8.411840 -6.066270 -0.235819 -0.547252 -72.063127 -2.075060 -44.997594 -112.589624 -49.521334 -0.000002 0.000014 -0.000001 -0.019473 3.639491 -1.990703 0.000002 -0.000002 -3.011620 -5.000163 -7.999947 0.000005 -12.802598 72.499876 15.576603 -42.545286 116.596670 49.384085 0.000002 0.000004 0.000001 -0.029854 -3.635730 1.990807 -0.000002 -0.000013 3.011610 -5.000151 7.999939 -0.000019 0.518358 -178.687051 3.927108 -179.999991 0.000005 -1.149994 168.009540 -3.052057 -0.712874 -0.000001 -0.000004 0.177859 70.290426 6.857909 2.135103 25.456959 -7.355616 0.000000 2.850387 179.612474 -0.043330 -0.000005 -0.000004 -1.153520 -10.279119 2.120818 0.477380 0.000005 0.000001 -0.179904 70.718829 -6.831933 -2.169152 25.456948 7.355613 -0.000001 
52.605804 -3.320994 84.379799 -9.082738 -0.068120 -2.208870 -0.319781 -0.323004 0.061145 3.356082 -0.644232 0.139254 5.001195 -0.642492 0.146717 9.356791 6.369413 -0.225794 8.424161 -6.064743 -0.235395 -0.562098 -72.061187 -2.091119 -44.992485 -112.579959 -49.509214 -0.000003 0.000014 -0.000001 -0.019475 3.639490 -1.990703 0.000002 -0.000001 -3.011620 -5.000162 -7.999948 0.000006 -12.772675 72.468758 15.542587 -42.499565 116.620535 49.362914 0.000001 0.000003 -0.000000 -0.029855 -3.635731 1.990806 0.000000 -0.000014 3.011608 -5.000154 7.999939 -0.000021 0.499234 -178.684046 3.927334 -179.999991 0.000005 -1.149994 168.010414 -3.055007 -0.713452 -0.000001 -0.000004 0.177859 70.287462 6.857919 2.134987 25.456957 -7.355617 0.000002 2.865029 179.626476 -0.018738 -0.000005 -0.000004 -1.153520 -10.240550 2.099722 0.475278 0.000004 0.000001 -0.179904 70.716480 -6.831913 -2.168993 25.456950 7.355613 -0.000001 
52.613998 -3.320535 84.373894 -9.065533 -0.069234 -2.203237 -0.322218 -0.322947 0.061144 3.350852 -0.643823 0.139252 4.995962 -0.642085 0.146714 9.345761 6.363394 -0.226081 8.436533 -6.063213 -0.234974 -0.576984 -72.059151 -2.107215 -44.989076 -112.569577 -49.498979 -0.000004 0.000014 -0.000000 -0.019472 3.639490 -1.990703 0.000005 -0.000002 -3.011617 -5.000164 -7.999949 0.000008 -12.742939 72.437510 15.508762 -42.455267 116.643703 49.343428 0.000002 0.000004 -0.000000 -0.029856 -3.635730 1.990806 -0.000001 -0.000013 3.011610 -5.000152 7.999939 -0.000019 0.479833 -178.681054 3.927525 -179.999991 0.000005 -1.149994 168.011288 -3.057944 -0.715024 -0.000001 -0.000005 0.177860 70.284388 6.857924 2.134978 25.456960 -7.355615 0.000000 2.879586 179.641447 0.006001 -0.000005 -0.000004 -1.153520 -10.201784 2.078570 0.473201 0.000004 0.000001 -0.179904 70.714137 -6.831930 -2.168839 25.456950 7.355613 -0.000001 
